# xmcd
#
# Track frame offsets: 
#        150
#        15579
#        36498
#        55578
#
# Disc length: 1050 seconds
#
# Revision: 0
# Processed by: cddbd v1.5.2PL0 Copyright (c) Steve Scherf et al.
# Submitted via: ExactAudioCopy v0.95b2
#
DISCID=29041804
DTITLE=Cleveland - 10 Days
DYEAR=2007
DGENRE=Bluegrass
TTITLE0=Anticipation
TTITLE1=10 Days
TTITLE2=Blues Train
TTITLE3=Reason
EXTD=
EXTT0=
EXTT1=
EXTT2=
EXTT3=
PLAYORDER=
